<?xml version="1.0" standalone="no"?>
<!DOCTYPE svg PUBLIC "-//W3C//DTD SVG 20010904//EN"
 "http://www.w3.org/TR/2001/REC-SVG-20010904/DTD/svg10.dtd">
<svg version="1.0" xmlns="http://www.w3.org/2000/svg"
 width="338.000000pt" height="338.000000pt" viewBox="0 0 338.000000 338.000000"
 preserveAspectRatio="xMidYMid meet">

<g transform="translate(0.000000,338.000000) scale(0.100000,-0.100000)"
fill="#000000" stroke="none">
<path d="M2192 2669 c-71 -12 -161 -43 -241 -84 -141 -71 -256 -173 -531 -472
-61 -68 -113 -123 -115 -123 -1 0 -29 16 -61 35 -66 40 -105 53 -184 61 -79 8
-143 -24 -200 -101 -13 -18 -12 -17 10 2 37 32 72 38 114 18 30 -14 44 -35 92
-127 89 -174 125 -205 344 -293 122 -49 230 -109 230 -128 0 -40 -138 -201
-229 -267 -34 -25 -57 -46 -52 -48 14 -5 169 57 223 89 27 16 48 26 48 23 0
-14 -45 -90 -88 -147 -68 -89 -69 -92 -41 -77 50 27 116 76 172 128 43 42 57
51 57 36 0 -18 -19 -93 -35 -139 -4 -14 -2 -13 10 5 l16 25 -7 -25 -7 -25 22
19 c12 11 19 26 16 33 -2 8 -1 11 4 8 6 -3 21 14 35 37 l26 43 0 -45 c-1 -25
-9 -68 -19 -97 -10 -29 -15 -50 -11 -48 16 10 81 157 94 215 32 134 15 341
-38 484 -21 56 -41 156 -32 156 7 0 71 -109 112 -190 45 -89 48 -83 42 75 -4
80 -11 125 -26 164 -12 30 -20 56 -19 58 7 6 136 -103 220 -185 58 -58 87 -81
87 -69 0 11 -5 15 -11 11 -7 -4 -9 0 -5 13 15 46 -65 226 -132 296 -14 15 -23
27 -20 27 26 0 294 -126 396 -186 19 -11 22 -12 10 -2 -10 8 -15 17 -13 20 12
12 -101 161 -171 227 -42 39 -74 71 -73 71 2 0 47 -11 99 -25 52 -13 96 -22
98 -20 3 2 -8 7 -23 11 -23 6 -26 9 -14 18 8 6 24 25 36 43 19 27 20 33 8 43
-8 7 -15 9 -15 4 0 -4 -9 2 -21 14 -11 12 -25 19 -31 16 -6 -4 -8 -3 -5 3 9
15 -61 44 -124 51 -50 7 -54 9 -57 35 -2 16 1 42 7 59 l11 31 -58 -7 c-32 -4
-69 -2 -83 3 -13 5 -18 10 -11 10 7 1 11 13 10 33 -3 27 3 35 42 60 80 50 153
81 245 104 l90 23 -85 -1 c-47 0 -109 -4 -138 -9z m-155 -235 c-3 -3 -12 -4
-19 -1 -8 3 -5 6 6 6 11 1 17 -2 13 -5z m378 -204 c3 -5 1 -10 -4 -10 -6 0
-11 5 -11 10 0 6 2 10 4 10 3 0 8 -4 11 -10z m-893 -590 c5 17 6 12 2 -15 -5
-38 -21 -70 -21 -43 0 7 -3 31 -6 53 -6 38 -6 39 5 10 l12 -30 8 25z"/>
<path d="M777 773 c-4 -3 -7 -44 -7 -90 l0 -83 60 0 c47 0 60 3 60 15 0 11
-12 15 -45 15 l-45 0 0 75 c0 69 -6 86 -23 68z"/>
<path d="M939 751 c-60 -61 -24 -151 61 -151 85 0 121 90 61 151 -40 39 -82
39 -122 0z m103 -18 c26 -23 24 -78 -4 -97 -30 -21 -54 -20 -78 4 -58 58 21
148 82 93z"/>
<path d="M1120 691 c0 -74 3 -91 15 -91 10 0 15 10 15 30 0 23 4 30 20 30 11
0 29 -13 42 -30 12 -16 30 -30 40 -30 17 0 17 2 -3 29 l-21 29 21 21 c26 26
26 42 3 71 -14 18 -32 24 -75 28 l-57 4 0 -91z m110 44 c21 -26 4 -45 -40 -45
-38 0 -40 2 -40 30 0 27 3 30 34 30 18 0 39 -7 46 -15z"/>
<path d="M1297 773 c-4 -3 -7 -44 -7 -90 l0 -83 65 0 c51 0 65 3 65 15 0 11
-12 15 -50 15 -43 0 -50 3 -50 20 0 17 7 20 50 20 38 0 50 4 50 15 0 11 -12
15 -51 15 -47 0 -50 2 -47 23 3 19 10 22 51 25 33 2 47 7 47 18 0 10 -14 14
-58 14 -32 0 -62 -3 -65 -7z"/>
<path d="M1460 688 c0 -52 4 -88 10 -88 6 0 10 27 10 60 0 33 4 60 9 60 5 0
19 -16 32 -35 l24 -36 32 38 33 38 0 -62 c0 -49 3 -63 15 -63 12 0 15 17 15
90 0 105 -12 116 -58 50 -15 -21 -29 -39 -32 -39 -3 0 -17 17 -32 38 -45 63
-58 52 -58 -51z"/>
<path d="M1792 688 c0 -51 3 -78 5 -60 4 30 6 32 47 32 49 0 76 22 76 63 0 35
-34 57 -87 57 l-43 0 2 -92z m102 66 c19 -18 21 -55 4 -72 -7 -7 -31 -12 -55
-12 l-43 0 0 50 0 50 39 0 c23 0 46 -7 55 -16z"/>
<path d="M1972 764 c-40 -27 -25 -56 37 -76 61 -20 74 -33 60 -60 -11 -21 -67
-25 -102 -7 -21 10 -21 10 -3 -5 30 -24 92 -21 110 6 22 31 1 60 -54 73 -54
13 -74 40 -46 61 23 16 72 19 81 4 3 -5 12 -10 18 -10 7 0 3 7 -7 15 -26 20
-66 19 -94 -1z"/>
<path d="M2122 715 c-2 -86 13 -115 62 -115 53 0 68 25 63 106 l-3 69 -2 -71
c-1 -38 -7 -75 -14 -82 -16 -16 -75 -15 -85 1 -4 6 -11 46 -14 87 l-6 75 -1
-70z"/>
<path d="M2300 765 c0 -8 3 -15 8 -15 4 0 20 -20 35 -45 16 -25 32 -45 35 -45
4 0 21 21 37 48 l30 47 6 -80 5 -80 2 93 c1 50 0 92 -2 92 -2 0 -18 -22 -36
-50 -18 -27 -36 -50 -40 -50 -4 0 -22 23 -40 50 -34 54 -40 58 -40 35z"/>
<path d="M1734 685 c0 -49 1 -71 3 -48 2 23 2 64 0 90 -2 26 -3 8 -3 -42z"/>
<path d="M2303 670 c0 -41 2 -58 4 -37 2 20 2 54 0 75 -2 20 -4 3 -4 -38z"/>
</g>
</svg>
